<?xml version="1.0" encoding="UTF-8" standalone="no"?>
<!-- Created with Inkscape (http://www.inkscape.org/) -->

<svg
   xmlns:dc="http://purl.org/dc/elements/1.1/"
   xmlns:cc="http://creativecommons.org/ns#"
   xmlns:rdf="http://www.w3.org/1999/02/22-rdf-syntax-ns#"
   xmlns:svg="http://www.w3.org/2000/svg"
   xmlns="http://www.w3.org/2000/svg"
   xmlns:sodipodi="http://sodipodi.sourceforge.net/DTD/sodipodi-0.dtd"
   xmlns:inkscape="http://www.inkscape.org/namespaces/inkscape"
   width="32"
   height="32"
   viewBox="0 0 32 32"
   version="1.1"
   id="svg8"
   inkscape:version="0.92.4 (5da689c313, 2019-01-14)"
   sodipodi:docname="tool_entities_new_32px.svg">
  <defs
     id="defs2" />
  <sodipodi:namedview
     id="base"
     pagecolor="#ffffff"
     bordercolor="#333333"
     borderopacity="0.60392157"
     inkscape:pageopacity="0.0"
     inkscape:pageshadow="2"
     inkscape:zoom="26.5"
     inkscape:cx="16"
     inkscape:cy="16"
     inkscape:document-units="px"
     inkscape:current-layer="layer1"
     showgrid="false"
     units="px"
     inkscape:pagecheckerboard="true"
     inkscape:showpageshadow="false"
     inkscape:window-width="1920"
     inkscape:window-height="1017"
     inkscape:window-x="-8"
     inkscape:window-y="-8"
     inkscape:window-maximized="1"
     inkscape:snap-bbox="true"
     inkscape:bbox-nodes="true">
    <inkscape:grid
       type="xygrid"
       id="grid815"
       empspacing="4"
       spacingx="1"
       spacingy="1" />
  </sodipodi:namedview>
  <metadata
     id="metadata5">
    <rdf:RDF>
      <cc:Work
         rdf:about="">
        <dc:format>image/svg+xml</dc:format>
        <dc:type
           rdf:resource="http://purl.org/dc/dcmitype/StillImage" />
        <dc:title></dc:title>
      </cc:Work>
    </rdf:RDF>
  </metadata>
  <g
     inkscape:label="Layer 1"
     inkscape:groupmode="layer"
     id="layer1"
     transform="translate(0,-288.53333)">
    <path
       style="color:#000000;font-style:normal;font-variant:normal;font-weight:normal;font-stretch:normal;font-size:medium;line-height:normal;font-family:sans-serif;font-variant-ligatures:normal;font-variant-position:normal;font-variant-caps:normal;font-variant-numeric:normal;font-variant-alternates:normal;font-feature-settings:normal;text-indent:0;text-align:start;text-decoration:none;text-decoration-line:none;text-decoration-style:solid;text-decoration-color:#000000;letter-spacing:normal;word-spacing:normal;text-transform:none;writing-mode:lr-tb;direction:ltr;text-orientation:mixed;dominant-baseline:auto;baseline-shift:baseline;text-anchor:start;white-space:normal;shape-padding:0;clip-rule:nonzero;display:inline;overflow:visible;visibility:visible;opacity:1;isolation:auto;mix-blend-mode:normal;color-interpolation:sRGB;color-interpolation-filters:linearRGB;solid-color:#000000;solid-opacity:1;vector-effect:none;fill:#2d2d30;fill-opacity:1;fill-rule:nonzero;stroke:none;stroke-width:4;stroke-linecap:butt;stroke-linejoin:miter;stroke-miterlimit:4;stroke-dasharray:none;stroke-dashoffset:0;stroke-opacity:1;color-rendering:auto;image-rendering:auto;shape-rendering:auto;text-rendering:auto;enable-background:accumulate"
       d="M 12,0 A 3,3 0 0 0 9,3 3,3 0 0 0 10,5.2324219 V 8 H 8 v 6 H 6.828125 L 6,13.171875 V 11.230469 A 3,3 0 0 0 7,9 3,3 0 0 0 4,6 3,3 0 0 0 1,9 3,3 0 0 0 2,11.232422 v 3.595703 L 5.171875,18 H 8 v 6 h 6 v 2.769531 A 3,3 0 0 0 13,29 a 3,3 0 0 0 3,3 3,3 0 0 0 3,-3 3,3 0 0 0 -1,-2.232422 V 24 h 6 v -3 h 1.171875 l 0.835937,0.835938 A 3,3 0 0 0 26,22 a 3,3 0 0 0 3,3 3,3 0 0 0 3,-3 3,3 0 0 0 -3,-3 3,3 0 0 0 -0.166016,0.0059 l -0.01563,-0.01563 A 3,3 0 0 0 29,19 3,3 0 0 0 32,16 3,3 0 0 0 29,13 3,3 0 0 0 28.833984,13.0059 L 26.828125,11 H 24 V 8 H 22 V 5.2304688 A 3,3 0 0 0 23,3 3,3 0 0 0 20,0 3,3 0 0 0 17,3 3,3 0 0 0 18,5.2324219 V 8 H 14 V 5.2304688 A 3,3 0 0 0 15,3 3,3 0 0 0 12,0 Z m 12,15 h 1.171875 l 0.835937,0.835938 A 3,3 0 0 0 26,16 3,3 0 0 0 26.173828,17 H 24 Z"
       transform="translate(0,288.53333)"
       id="path7076"
       inkscape:connector-curvature="0" />
    <path
       style="display:inline;fill:#f1f1f1;fill-opacity:1;stroke:none;stroke-width:1px;stroke-linecap:butt;stroke-linejoin:miter;stroke-opacity:1"
       d="m 12,1 a 2,2 0 0 0 -2,2 2,2 0 0 0 1,1.7285156 V 9 H 9 v 6 H 6.4140625 L 5,13.585938 V 10.728516 A 2,2 0 0 0 6,9 2,2 0 0 0 4,7 2,2 0 0 0 2,9 2,2 0 0 0 3,10.730469 v 3.683593 L 5.5859375,17 H 9 v 6 h 6 v 4.269531 A 2,2 0 0 0 14,29 a 2,2 0 0 0 2,2 2,2 0 0 0 2,-2 2,2 0 0 0 -1,-1.728516 V 23 h 6 v -3 h 2.585938 l 1.484374,1.484375 A 2,2 0 0 0 27,22 a 2,2 0 0 0 2,2 2,2 0 0 0 2,-2 2,2 0 0 0 -2,-2 2,2 0 0 0 -0.517578,0.06836 L 26.414062,18 H 23 v -4 h 2.585938 l 1.484374,1.484375 A 2,2 0 0 0 27,16 a 2,2 0 0 0 2,2 2,2 0 0 0 2,-2 2,2 0 0 0 -2,-2 2,2 0 0 0 -0.517578,0.06836 L 26.414062,12 H 23 V 9 H 21 V 4.7304688 A 2,2 0 0 0 22,3 2,2 0 0 0 20,1 2,2 0 0 0 18,3 2,2 0 0 0 19,4.7285156 V 9 H 13 V 4.7304688 A 2,2 0 0 0 14,3 2,2 0 0 0 12,1 Z m 0,1 a 1,1 0 0 1 1,1 1,1 0 0 1 -1,1 1,1 0 0 1 -1,-1 1,1 0 0 1 1,-1 z m 8,0 A 1,1 0 0 1 21,3 1,1 0 0 1 20,4 1,1 0 0 1 19,3 1,1 0 0 1 20,2 Z M 4,8 A 1,1 0 0 1 5,9 1,1 0 0 1 4,10 1,1 0 0 1 3,9 1,1 0 0 1 4,8 Z m 7,2 h 2 6 2 l 1,1 v 1 2 4 2 1 l -1,1 h -4 -2 -4 l -1,-1 v -4 -2 -4 z m 0,3 v 1 h 1 v -1 z m 2,0 v 1 h 2 v -1 z m -2,2 v 5 h 3 v -1 h -2 v -1 h 1 v -1 h -1 v -1 h 2 v -1 z m 18,0 a 1,1 0 0 1 1,1 1,1 0 0 1 -1,1 1,1 0 0 1 -1,-1 1,1 0 0 1 1,-1 z m 0,6 a 1,1 0 0 1 1,1 1,1 0 0 1 -1,1 1,1 0 0 1 -1,-1 1,1 0 0 1 1,-1 z m -13,7 a 1,1 0 0 1 1,1 1,1 0 0 1 -1,1 1,1 0 0 1 -1,-1 1,1 0 0 1 1,-1 z"
       id="path7032"
       inkscape:connector-curvature="0"
       transform="translate(0,288.53333)" />
  </g>
</svg>
