<?xml version="1.0" encoding="UTF-8" standalone="no"?>
<!-- Created with Inkscape (http://www.inkscape.org/) -->

<svg
   xmlns:dc="http://purl.org/dc/elements/1.1/"
   xmlns:cc="http://creativecommons.org/ns#"
   xmlns:rdf="http://www.w3.org/1999/02/22-rdf-syntax-ns#"
   xmlns:svg="http://www.w3.org/2000/svg"
   xmlns="http://www.w3.org/2000/svg"
   xmlns:sodipodi="http://sodipodi.sourceforge.net/DTD/sodipodi-0.dtd"
   xmlns:inkscape="http://www.inkscape.org/namespaces/inkscape"
   width="32"
   height="32"
   viewBox="0 0 32 32"
   version="1.1"
   id="svg8"
   inkscape:version="0.92.4 (5da689c313, 2019-01-14)"
   sodipodi:docname="tool_grids_32px.svg">
  <defs
     id="defs2" />
  <sodipodi:namedview
     id="base"
     pagecolor="#ffffff"
     bordercolor="#333333"
     borderopacity="0.60392157"
     inkscape:pageopacity="0.0"
     inkscape:pageshadow="2"
     inkscape:zoom="16.001826"
     inkscape:cx="18.498391"
     inkscape:cy="20.645707"
     inkscape:document-units="px"
     inkscape:current-layer="layer1"
     showgrid="true"
     units="px"
     inkscape:pagecheckerboard="true"
     inkscape:showpageshadow="false"
     inkscape:window-width="1920"
     inkscape:window-height="1017"
     inkscape:window-x="-8"
     inkscape:window-y="-8"
     inkscape:window-maximized="1">
    <inkscape:grid
       type="xygrid"
       id="grid815"
       empspacing="4"
       spacingx="1"
       spacingy="1" />
  </sodipodi:namedview>
  <metadata
     id="metadata5">
    <rdf:RDF>
      <cc:Work
         rdf:about="">
        <dc:format>image/svg+xml</dc:format>
        <dc:type
           rdf:resource="http://purl.org/dc/dcmitype/StillImage" />
        <dc:title></dc:title>
      </cc:Work>
    </rdf:RDF>
  </metadata>
  <g
     inkscape:label="Layer 1"
     inkscape:groupmode="layer"
     id="layer1"
     transform="translate(0,-288.53333)">
    <path
       style="fill:#2d2d30;fill-opacity:1;stroke:none;stroke-width:1px;stroke-linecap:butt;stroke-linejoin:miter;stroke-opacity:1"
       d="m 3,291.53333 v 8 h 3 v 10 H 3 v 8 h 8 v -3 h 10 v 3 h 8 v -8 h -3 v -10 h 3 v -8 h -8 v 3 H 11 v -3 z"
       id="path1402"
       inkscape:connector-curvature="0" />
    <path
       style="fill:#f1f1f1;fill-opacity:1;stroke:none;stroke-width:4;stroke-linecap:square;stroke-linejoin:miter;stroke-miterlimit:4;stroke-dasharray:none;stroke-opacity:1"
       d="m 4,4 v 6 H 6 V 6 h 4.001953 L 10,4 Z m 18,0 v 2 h 4 v 4.001953 L 28,10 V 4 Z M 7,7 V 25 H 25 V 7 Z m 2,2 h 4 v 4 H 9 Z m 5,0 h 4 v 4 h -4 z m 5,0 h 4 v 4 H 19 Z M 9,14 h 4 v 4 H 9 Z m 5,0 h 4 v 4 h -4 z m 5,0 h 4 v 4 H 19 Z M 9,19 h 4 v 4 H 9 Z m 5,0 h 4 v 4 h -4 z m 5,0 h 4 v 4 H 19 Z M 6,21.998047 4,22 v 6 h 6 V 26 H 6 Z M 26,22 v 4 H 21.998047 L 22,28 h 6 v -6 z"
       id="rect1384"
       inkscape:connector-curvature="0"
       transform="translate(0,288.53333)" />
  </g>
</svg>
