<?xml version="1.0" encoding="UTF-8" standalone="no"?>
<!-- Created with Inkscape (http://www.inkscape.org/) -->

<svg
   xmlns:dc="http://purl.org/dc/elements/1.1/"
   xmlns:cc="http://creativecommons.org/ns#"
   xmlns:rdf="http://www.w3.org/1999/02/22-rdf-syntax-ns#"
   xmlns:svg="http://www.w3.org/2000/svg"
   xmlns="http://www.w3.org/2000/svg"
   xmlns:sodipodi="http://sodipodi.sourceforge.net/DTD/sodipodi-0.dtd"
   xmlns:inkscape="http://www.inkscape.org/namespaces/inkscape"
   width="32"
   height="32"
   viewBox="0 0 32 32"
   version="1.1"
   id="svg8"
   inkscape:version="0.92.4 (5da689c313, 2019-01-14)"
   sodipodi:docname="tool_brush_32px.svg">
  <defs
     id="defs2" />
  <sodipodi:namedview
     id="base"
     pagecolor="#ffffff"
     bordercolor="#333333"
     borderopacity="0.60392157"
     inkscape:pageopacity="0.0"
     inkscape:pageshadow="2"
     inkscape:zoom="2"
     inkscape:cx="27.80455"
     inkscape:cy="20.240651"
     inkscape:document-units="px"
     inkscape:current-layer="layer1"
     showgrid="false"
     units="px"
     inkscape:pagecheckerboard="true"
     inkscape:showpageshadow="false"
     inkscape:window-width="1920"
     inkscape:window-height="1017"
     inkscape:window-x="-8"
     inkscape:window-y="-8"
     inkscape:window-maximized="1"
     inkscape:snap-bbox="true"
     inkscape:bbox-nodes="true"
     inkscape:snap-global="true"
     inkscape:snap-grids="true">
    <inkscape:grid
       type="xygrid"
       id="grid815"
       empspacing="4"
       spacingx="1"
       spacingy="1" />
  </sodipodi:namedview>
  <metadata
     id="metadata5">
    <rdf:RDF>
      <cc:Work
         rdf:about="">
        <dc:format>image/svg+xml</dc:format>
        <dc:type
           rdf:resource="http://purl.org/dc/dcmitype/StillImage" />
        <dc:title></dc:title>
      </cc:Work>
    </rdf:RDF>
  </metadata>
  <g
     inkscape:label="Layer 1"
     inkscape:groupmode="layer"
     id="layer1"
     transform="translate(0,-288.53333)">
    <path
       sodipodi:nodetypes="ccccscccccccc"
       inkscape:connector-curvature="0"
       id="path4534"
       d="M 26.794922,293.62317 C 25.254904,293.79584 9,306.53333 10.638672,308.49622 9.3908462,308.76092 8.6789847,309.46051 8.5195312,310.6095 8.3533562,310.5666 8.1816416,310.5351 8,310.5333 c -2.3459138,-0.0227 -2.3150282,2.90483 -3,4 -0.482004,0.77066 -1,1.00003 -1,1.00003 1.6535475,0 1.156412,0.005 2.3925781,0.006 2.2482615,0.002 3.5923909,-1.37262 3.6074219,-3.0059 0.0016,-0.17639 -0.023872,-0.34354 -0.0625,-0.50391 1.184486,-0.19304 1.884292,-0.90445 2.115234,-2.11914 1.947266,1.62298 15.556716,-15.55657 14.84961,-16.26367 -0.0221,-0.0221 -0.05774,-0.029 -0.107422,-0.0234 z"
       style="fill:none;fill-opacity:1;stroke:#2d2d30;stroke-width:2;stroke-linecap:butt;stroke-linejoin:round;stroke-opacity:1;stroke-miterlimit:4;stroke-dasharray:none" />
    <path
       style="fill:#f1f1f1;fill-opacity:1;stroke:none;stroke-width:1px;stroke-linecap:butt;stroke-linejoin:miter;stroke-opacity:1"
       d="M 26.794922,293.62317 C 25.254904,293.79584 9,306.53333 10.638672,308.49622 9.3908462,308.76092 8.6789847,309.46051 8.5195312,310.6095 8.3533562,310.5666 8.1816416,310.5351 8,310.5333 c -2.3459138,-0.0227 -2.3150282,2.90483 -3,4 -0.482004,0.77066 -1,1.00003 -1,1.00003 1.6535475,0 1.156412,0.005 2.3925781,0.006 2.2482615,0.002 3.5923909,-1.37262 3.6074219,-3.0059 0.0016,-0.17639 -0.023872,-0.34354 -0.0625,-0.50391 1.184486,-0.19304 1.884292,-0.90445 2.115234,-2.11914 1.947266,1.62298 15.556716,-15.55657 14.84961,-16.26367 -0.0221,-0.0221 -0.05774,-0.029 -0.107422,-0.0234 z"
       id="path4518"
       inkscape:connector-curvature="0"
       sodipodi:nodetypes="ccccscccccccc" />
    <path
       style="fill:none;stroke:#2d2d30;stroke-width:1px;stroke-linecap:butt;stroke-linejoin:miter;stroke-opacity:1"
       d="m 8.1538251,310.08141 c 0.1988738,0.88388 1.8340582,2.36439 2.2980969,2.36439"
       id="path4530"
       inkscape:connector-curvature="0"
       sodipodi:nodetypes="cc" />
    <path
       style="fill:none;stroke:#2d2d30;stroke-width:1px;stroke-linecap:butt;stroke-linejoin:miter;stroke-opacity:1"
       d="M 9.984375,308.37708 12.1875,310.5802"
       id="path4532"
       inkscape:connector-curvature="0" />
  </g>
</svg>
